<?xml version="1.0" encoding="UTF-8"?>
<svg width="32px" height="32px" viewBox="0 0 32 32" version="1.1" xmlns="http://www.w3.org/2000/svg" xmlns:xlink="http://www.w3.org/1999/xlink">
    <!-- Generator: Sketch 50.2 (55047) - http://www.bohemiancoding.com/sketch -->
    <title>twitter</title>
    <desc>Created with Sketch.</desc>
    <defs></defs>
    <g id="twitter" stroke="none" stroke-width="1" fill="none" fill-rule="evenodd">
        <path d="M32,6.079 C30.823,6.601 29.558,6.954 28.229,7.113 C29.585,6.3 30.626,5.014 31.116,3.481 C29.848,4.233 28.442,4.779 26.947,5.074 C25.75,3.798 24.043,3 22.155,3 C18.529,3 15.59,5.94 15.59,9.565 C15.59,10.08 15.647,10.581 15.76,11.062 C10.303,10.787 5.466,8.174 2.228,4.202 C1.663,5.172 1.339,6.3 1.339,7.503 C1.339,9.781 2.498,11.79 4.259,12.967 C3.183,12.933 2.171,12.638 1.286,12.146 C1.285,12.173 1.285,12.201 1.285,12.228 C1.285,15.409 3.548,18.063 6.552,18.666 C6.001,18.816 5.421,18.896 4.822,18.896 C4.399,18.896 3.988,18.855 3.587,18.779 C4.422,21.387 6.847,23.285 9.72,23.338 C7.473,25.099 4.642,26.148 1.566,26.148 C1.036,26.148 0.514,26.118 0,26.056 C2.905,27.919 6.356,29.006 10.063,29.006 C22.14,29.006 28.743,19.002 28.743,10.327 C28.743,10.042 28.737,9.759 28.724,9.477 C30.007,8.552 31.12,7.395 32,6.079" id="Fill-1" fill="#FFFFFF"></path>
    </g>
</svg>