<?xml version="1.0" encoding="UTF-8"?>
<svg width="32px" height="32px" viewBox="0 0 32 32" version="1.1" xmlns="http://www.w3.org/2000/svg" xmlns:xlink="http://www.w3.org/1999/xlink">
    <!-- Generator: Sketch 50.2 (55047) - http://www.bohemiancoding.com/sketch -->
    <title>reddit</title>
    <desc>Created with Sketch.</desc>
    <defs></defs>
    <g id="reddit" stroke="none" stroke-width="1" fill="none" fill-rule="evenodd">
        <path d="M21.334,22.149 C19.869,22.149 18.684,20.962 18.684,19.499 C18.684,18.043 19.869,16.855 21.334,16.855 C22.789,16.855 23.977,18.043 23.977,19.499 C23.977,20.962 22.789,22.149 21.334,22.149 M16.02,28.77 C8.622,28.77 8.775,24.75 10.085,24.752 C11.301,24.759 11.025,26.12 16.032,26.12 C21.039,26.12 20.77,24.759 21.946,24.752 C23.256,24.749 23.409,28.77 16.02,28.77 M8.092,19.499 C8.092,18.043 9.276,16.855 10.741,16.855 C12.197,16.855 13.385,18.043 13.385,19.499 C13.385,20.962 12.197,22.149 10.741,22.149 C9.276,22.149 8.092,20.962 8.092,19.499 M31.405,18.824 C31.74,18.242 31.946,17.575 31.946,16.855 C31.946,14.662 30.174,12.889 27.979,12.889 C27.14,12.889 26.364,13.152 25.724,13.596 C23.435,12.505 20.664,11.792 17.641,11.604 C17.821,10.664 18.134,9.656 18.684,8.908 C19.317,8.048 20.371,7.387 21.32,6.923 C21.895,7.388 22.615,7.678 23.411,7.678 C25.255,7.678 26.751,6.183 26.751,4.339 C26.751,2.496 25.255,1 23.411,1 C21.567,1 20.071,2.496 20.071,4.339 C20.071,4.515 20.097,4.684 20.123,4.852 C18.665,5.663 16.777,6.793 16.034,7.586 C15.371,8.293 15.052,10.048 14.897,11.581 C11.742,11.724 8.849,12.442 6.469,13.564 C5.791,13.052 4.956,12.738 4.041,12.738 C1.811,12.738 0,14.547 0,16.777 C0,17.589 0.244,18.343 0.656,18.977 C0.32,19.779 0.124,20.616 0.124,21.484 C0.124,26.966 7.257,31.418 16.062,31.418 C24.865,31.418 32,26.966 32,21.484 C32,20.561 31.782,19.672 31.405,18.824" id="Fill-1" fill="#FFFFFF"></path>
    </g>
</svg>