<?xml version="1.0" encoding="UTF-8"?>
<svg width="32px" height="32px" viewBox="0 0 32 32" version="1.1" xmlns="http://www.w3.org/2000/svg" xmlns:xlink="http://www.w3.org/1999/xlink">
    <!-- Generator: Sketch 50.2 (55047) - http://www.bohemiancoding.com/sketch -->
    <title>discord</title>
    <desc>Created with Sketch.</desc>
    <defs></defs>
    <g id="discord" stroke="none" stroke-width="1" fill="none" fill-rule="evenodd">
        <path d="M20.8764514,20.3013938 C19.34195,20.3013938 18.0819658,18.9315479 18.0819658,17.2603359 C18.0819658,15.5891239 19.3148271,14.219278 20.8764514,14.219278 C22.4378017,14.219278 23.670663,15.5891239 23.670663,17.2603359 C23.670663,18.9315479 22.4378017,20.3013938 20.8764514,20.3013938 M10.8765764,20.3013938 C9.342075,20.3013938 8.08209075,18.9315479 8.08209075,17.2603359 C8.08209075,15.5891239 9.31495205,14.219278 10.8765764,14.219278 C12.4382007,14.219278 13.6984589,15.5891239 13.671062,17.2603359 C13.671062,18.9315479 12.4382007,20.3013938 10.8765764,20.3013938 M28.0541699,6.87690405 C24.1092877,3.91803692 20.3559099,4.00022768 20.3559099,4.00022768 L19.9720791,4.43857836 C24.6295551,5.86321809 26.7941856,7.91798692 26.7941856,7.91798692 C23.9446322,6.35636261 21.1504205,5.58924891 18.5477134,5.28788281 C16.5751353,5.06870747 14.684474,5.12350131 13.013536,5.34267665 C12.8491545,5.34267665 12.7121699,5.37007357 12.5477884,5.39747048 C11.5888962,5.47966124 9.26015822,5.83582117 6.32841404,7.12347631 C5.31500205,7.58922391 4.71226986,7.91798692 4.71226986,7.91798692 C4.71226986,7.91798692 6.98621404,5.75363041 11.9176592,4.32899069 L11.6436901,4.00022768 C11.6436901,4.00022768 7.89031233,3.91803692 3.94515616,6.87690405 C3.94515616,6.87690405 0,14.0274996 0,22.8493071 C0,22.8493071 2.3013411,26.8218602 8.35605993,27.0136386 C8.35605993,27.0136386 9.36974589,25.7807773 10.1916534,24.7396945 C6.71224486,23.6986116 5.39719281,21.5068582 5.39719281,21.5068582 C5.39719281,21.5068582 5.67116199,21.6989105 6.16430651,21.9728797 C6.19142946,22.0000027 6.21910034,22.0273996 6.27389418,22.0547965 C6.35608493,22.1098643 6.43827568,22.1369873 6.52046644,22.1917811 C7.20538938,22.5753379 7.89031233,22.876704 8.52016747,23.1232763 C9.64371507,23.561627 10.9858901,23.9999777 12.5477884,24.3016177 C14.6025572,24.6849006 17.013212,24.8218852 19.6435901,24.3287407 C20.9309712,24.1095653 22.2462973,23.7260085 23.6161432,23.1506732 C24.5750353,22.7947873 25.6432411,22.2739719 26.7667887,21.5342551 C26.7667887,21.5342551 25.3969428,23.7808023 21.8076726,24.7944883 C22.6295801,25.8355712 23.6161432,27.0136386 23.6161432,27.0136386 C29.670862,26.8218602 31.9996,22.8493071 31.9996,22.8493071 C31.9996,14.0274996 28.0541699,6.87690405 28.0541699,6.87690405" id="Fill-1" fill="#FFFFFF"></path>
    </g>
</svg>